<?xml version="1.0" encoding="UTF-8"?>
<svg id="Layer_1" data-name="Layer 1" xmlns="http://www.w3.org/2000/svg" width="899.92299" height="303.79747" viewBox="0 0 899.92299 303.79747">
  <g>
    <path d="M.5,300.08139v-4.7189c18.28462,0,20.84077-3.53872,20.84077-15.53268v-116.78697c0-11.99214-2.55615-15.53087-20.84077-15.53087v-4.7189h61.53791c28.70681,0,47.77822,12.58314,47.77822,38.92778,0,21.82515-14.35431,34.60408-33.4239,36.96263v.98439c24.57528,1.57176,40.69714,16.90865,40.69714,38.14281,0,31.06355-25.55967,42.27071-57.01661,42.27071H.5ZM43.16411,214.75136c4.91469.78679,10.02699.78679,14.74589.78679,16.12186,0,30.27857-10.22278,30.27857-33.03051,0-22.41252-14.3525-31.65454-29.88518-31.65454-3.73633,0-7.86423.1976-11.20717.98439-2.75194.58918-3.93212,2.35855-3.93212,5.11048v57.80339ZM43.16411,285.92468c0,4.7189,5.1123,6.09487,14.3525,6.09487,18.48222,0,37.55362-6.87985,37.55362-34.01309,0-27.13143-21.82515-34.40648-36.96444-34.40648-5.11048,0-10.02699,0-14.94168.78679v61.53791Z" fill="#fff" stroke="#000" stroke-miterlimit="10"/>
    <path d="M128.49595,248.37287c0-31.65454,15.53087-56.03403,42.27071-56.03403,25.36207,0,42.27071,22.61013,42.27071,54.85385,0,31.65454-15.72847,56.03403-42.27071,56.03403-25.55967,0-42.27071-22.61013-42.27071-54.85385ZM193.181,258.79325c0-26.73985-8.06184-57.80339-25.36388-57.80339-13.95911,0-19.66059,18.48041-19.66059,35.78245,0,26.73985,8.25763,57.80339,25.55967,57.80339,13.95911,0,19.4648-18.48041,19.4648-35.78245Z" fill="#fff" stroke="#000" stroke-miterlimit="10"/>
    <path d="M284.8035,299.8856l-.39339-16.71286-.58918-.19579c-6.68406,10.61617-16.12186,20.24977-30.08097,20.24977-13.56753,0-21.43176-11.00957-21.43176-28.31161v-55.44485c0-12.77893-.58918-15.13929-12.58314-11.40296l-1.37597-4.32551,30.27857-9.82939,2.75194,2.55434v76.4814c0,11.60056,3.53872,17.10625,11.01138,17.10625,7.86423,0,15.72847-6.68587,22.01913-15.13929v-55.44485c0-12.77893-.39339-15.13929-12.58314-11.40296l-1.37597-4.32551,30.47436-9.82939,2.55615,2.55434v80.21773c0,13.17232.39339,15.72847,12.58314,11.20717l1.76936,4.5213-29.09839,10.81378-3.93212-3.34112Z" fill="#fff" stroke="#000" stroke-miterlimit="10"/>
    <path d="M325.11088,295.36248c11.40296,0,13.36992-2.94954,13.36992-15.53268v-60.55533c0-13.17413,0-15.92607-11.79816-11.01138l-1.96515-4.5213,15.72847-6.29066,13.36992-5.50569,3.73451,2.94954v18.08701h.591c8.84681-12.18975,17.69543-20.64316,31.06355-20.64316,13.96092,0,21.62755,10.02699,21.62755,28.5074v58.98357c0,12.58314,1.76936,15.53268,12.97653,15.53268v4.7189h-44.04008v-4.7189c10.42038,0,11.99214-2.94954,11.99214-15.53268v-57.80339c0-10.81378-4.12791-15.92607-11.59875-15.92607-8.06184,0-15.13929,5.50569-22.61194,15.13929v58.59018c0,12.58314,1.57357,15.53268,11.99395,15.53268v4.7189h-44.43347v-4.7189Z" fill="#fff" stroke="#000" stroke-miterlimit="10"/>
    <path d="M522.11739,292.21715l-29.09839,11.00957-4.12972-3.34112v-16.12368h-.78679c-5.11048,11.60056-13.95911,19.4648-26.73804,19.4648-18.87561,0-30.47436-21.03656-30.47436-52.10191,0-34.40648,14.1549-58.78597,35.78245-58.78597,9.8312,0,17.89122,4.12791,22.21673,11.00957v-36.76503c0-12.78074.1976-15.13929-11.60056-9.43781l-1.96515-4.12972,30.08097-14.94168,2.55615,2.75194v135.85837c0,13.17232.1976,15.72847,12.38735,11.00957l1.76936,4.52311ZM488.88928,273.93254v-36.37345c0-19.26901-5.89727-34.99748-18.08883-34.99748-13.7615,0-19.66059,19.26901-19.66059,43.84429,0,24.97049,5.50569,43.05931,18.48222,43.05931,8.65102,0,14.3525-6.48827,19.26719-15.53268Z" fill="#fff" stroke="#000" stroke-miterlimit="10"/>
    <path d="M617.08283,277.86465c-.58918,14.94168-5.30809,25.36207-18.28462,25.36207-11.20717,0-17.89122-7.47084-17.89122-25.75546v-3.53872c-4.5213,18.48041-14.94168,29.29418-29.09839,29.29418-13.95911,0-21.82334-10.42038-21.82334-23.19931,0-24.77288,28.5074-35.78426,50.92174-45.81125v-11.40296c0-16.90865-5.50569-22.80773-15.13929-22.80773-7.66844,0-13.17232,3.93212-13.17232,10.42038,0,4.52311,2.75194,7.07926,2.75194,11.60056,0,5.30809-3.34293,9.04441-9.6336,9.04441-7.07745,0-10.81378-4.91469-10.81378-12.18975,0-14.5501,14.15671-26.73985,34.01309-26.73985,19.0714,0,30.86957,10.81378,30.86957,32.04793v58.001c0,9.6336,1.96515,11.99214,5.11048,11.99214,4.12972,0,7.27505-3.93212,7.66844-16.31765h4.5213ZM580.90699,263.90555v-23.20112c-15.92607,8.25763-32.04793,17.69543-32.04793,34.0149,0,8.25763,3.73633,13.56571,10.61799,13.56571,7.86423,0,16.31765-7.27505,21.42995-24.37949Z" fill="#fff" stroke="#000" stroke-miterlimit="10"/>
    <path d="M690.61832,202.75922c0,7.66663-4.52311,12.58314-9.63541,12.58314-3.53872,0-5.11048-1.37597-7.66663-4.12972-2.55615-2.55615-3.53872-3.34293-5.89908-3.34293-4.5213,0-9.82939,6.48827-13.95911,18.48222v52.29952c0,13.36811,2.94954,16.51526,20.84077,16.51526v4.91469h-53.08449v-4.7189c11.40296,0,13.36992-2.94954,13.36992-15.53268v-60.55533c0-13.17413,0-15.92607-11.79816-11.01138l-1.96515-4.5213,15.72847-6.29066,13.36992-5.50569,3.53872,2.94954v18.8738h.58918c5.50569-10.42038,15.13929-21.42995,25.95306-21.42995,6.88166,0,10.61799,3.93212,10.61799,10.42038Z" fill="#fff" stroke="#000" stroke-miterlimit="10"/>
    <path d="M729.9413,279.8298c0,12.58314,1.96515,15.53268,13.95911,15.53268v4.7189h-46.79383v-4.7189c11.99395,0,13.95911-2.94954,13.95911-15.53268v-60.55533c0-13.17413-.19579-15.92607-11.59875-11.20717l-1.76936-4.5213,28.90079-11.60056,3.34293,2.94954v84.93482ZM706.151,161.07769c0-7.07745,5.30809-12.18975,12.78074-12.18975,7.27324,0,12.58314,5.1123,12.58314,12.18975,0,6.88166-5.3099,11.99395-12.58314,11.99395-7.47265,0-12.78074-5.1123-12.78074-11.99395Z" fill="#fff" stroke="#000" stroke-miterlimit="10"/>
    <path d="M824.51335,258.00646c-4.12972,31.65454-17.49964,45.22026-35.98005,45.22026-22.21673,0-36.17765-21.03656-36.17765-53.47788,0-31.06536,13.76332-57.41,37.16023-57.41,23.00352,0,33.8173,21.62755,33.8173,50.33255h-51.90612v.39339c0,26.73804,8.25763,45.61365,24.57709,45.61365,8.84681,0,19.0714-6.88166,23.79031-30.67197h4.7189ZM771.62465,234.60955h32.83472c0-18.8738-3.34293-34.01309-14.9435-34.01309-11.79635,0-16.71105,14.3525-17.89122,34.01309Z" fill="#fff" stroke="#000" stroke-miterlimit="10"/>
    <path d="M849.67962,296.14927c-2.55615-1.96697-4.12791-1.37597-5.30809.98258l-1.57357,3.93212h-4.32551l-1.37597-42.46832h4.32551c2.94954,23.39691,14.15671,36.37345,27.72242,36.37345,9.2402,0,14.15671-6.29066,14.15671-16.31765,0-8.84862-4.12972-12.58314-22.41434-27.32903-16.71286-13.17413-22.41434-20.84077-22.41434-32.04793,0-16.31947,11.79635-26.93564,27.32903-26.93564,8.84862,0,14.9435,3.73633,18.48222,6.68406,2.55615,2.36036,4.5213,1.37597,5.1123-.98258l1.17837-4.32551h4.52311l.78679,34.40648h-4.32551c-2.36036-15.33508-11.01138-27.52482-24.1837-27.52482-7.86423,0-12.97653,5.30809-12.97653,13.17232,0,8.25763,5.1123,12.58314,18.8738,23.39691,17.69543,13.95911,26.15067,22.41434,26.15067,37.35602,0,19.4648-13.17413,28.705-28.31342,28.705-10.02699,0-17.30023-4.12791-21.42995-7.07745Z" fill="#fff" stroke="#000" stroke-miterlimit="10"/>
  </g>
  <g>
    <g>
      <path d="M157.03661,181.65416c-23.41004,0-37.59182-12.8366-38.90836-35.21781-.31139-5.28859,1.3427-10.13874,4.65959-13.65492,3.21475-3.40906,7.81082-5.36457,12.61115-5.36457,8.92309,0,15.83463,6.34107,16.80615,15.4211.59039,6.87168,2.96938,6.87168,5.26866,6.87168,5.27738,0,7.19427-4.17258,7.19427-6.9763,0-4.69571-5.32845-10.27949-10.96952-16.1921-8.64783-9.06384-19.40934-20.34475-19.40934-36.91674,0-25.56483,21.40346-39.35801,41.54269-39.35801,21.25524,0,34.78685,11.49016,37.1235,31.52601.63897,5.10923-.83202,10.02415-4.1514,13.78321-3.2434,3.67561-8.0537,5.86901-12.86524,5.86901-8.3053,0-14.70242-5.77061-16.29672-14.70242-.86441-5.18521-2.66173-5.18521-4.24731-5.18521-4.64589,0-5.6635,4.87756-5.6635,6.75709,0,4.99713,5.2288,10.28074,11.28216,16.39761,8.70263,8.79605,19.5339,19.7419,19.5339,36.27279,0,20.21023-14.94531,40.66957-43.51066,40.66957Z" fill="#fff"/>
      <path d="M125.34619,146.01162c-.43719-7.43093,4.80781-11.36436,10.0528-11.36436,4.58984,0,8.9617,2.84109,9.61686,8.96046.65516,7.65014,3.93468,13.33232,12.45795,13.33232,9.17967,0,14.42467-7.21296,14.42467-14.2067,0-16.82857-30.37887-28.19293-30.37887-53.10883,0-15.51701,11.36436-32.12761,34.3123-32.12761,20.76325,0,28.41215,12.02076,29.94168,25.13387.87437,6.99374-4.58859,11.58358-9.83483,11.58358-4.15265,0-8.08608-2.62187-9.17843-8.74249-.87437-5.24499-3.49749-11.14515-11.36561-11.14515-8.52327,0-12.89389,7.42968-12.89389,13.98748,0,17.48373,30.81605,27.75575,30.81605,52.6704,0,16.17341-12.02076,33.43917-36.28026,33.43917-23.38513,0-30.81605-13.55029-31.69043-28.41215Z"/>
    </g>
    <path d="M236.52894,181.87338c-23.48477,0-36.95286-16.01772-36.95286-43.94784,0-8.54195,1.16832-17.78266,3.47507-27.46429,9.11615-38.39146,29.52442-60.41272,55.98978-60.41272,23.54954,0,37.60926,16.26558,37.60926,43.51066,0,7.94036-1.20444,16.98302-3.68557,27.64614-9.15974,38.56709-29.72745,60.66805-56.43569,60.66805ZM256.85501,83.96101c-5.62613,0-13.74335,10.05156-19.20009,32.50501-1.88825,8.18199-2.85604,15.06239-2.85604,20.36717,0,7.23787,1.39127,10.90849,4.13397,10.90849,7.01367,0,14.45705-12.46667,19.42678-32.53491,1.85711-7.84569,2.84856-14.90296,2.84856-20.33603,0-7.23911-1.46476-10.90974-4.35318-10.90974Z" fill="#fff"/>
    <path d="M206.80648,137.92553c0-7.86811,1.09234-16.6106,3.27828-25.78903,8.30405-34.9687,26.007-54.85758,48.95618-54.85758,20.76201,0,30.37887,14.20545,30.37887,36.28026,0,7.86811-1.31156,16.60936-3.49749,26.00825-8.3053,34.9687-26.00825,55.07555-49.39337,55.07555-20.54404,0-29.72246-14.64388-29.72246-36.71745ZM265.37828,116.94431c1.96672-8.3053,3.06031-15.9542,3.06031-22.07357,0-11.14639-3.49749-18.14013-11.58358-18.14013-11.14639,0-20.54404,14.64264-26.22622,38.02776-1.96796,8.52452-3.06031,15.9542-3.06031,22.07481,0,11.36436,3.49749,18.13889,11.36436,18.13889,11.80279,0,20.76325-15.07982,26.44543-38.02776Z"/>
    <g>
      <path d="M297.33851,180.56182c-10.14124,0-17.50241-7.08467-17.50241-16.84725,0-1.81476.32011-3.41404.57793-4.69944l.09964-.42722,20.57393-77.81673c-3.63699-2.9507-5.95246-7.45833-5.95246-12.34585,0-8.04249,5.81421-14.73356,13.40581-15.98285l4.97222-18.86255c5.54517-21.02731,20.08817-33.57992,38.90089-33.57992,2.57828,0,5.04322.25285,7.75726.79466,8.53324,1.57935,14.33499,8.21313,14.33499,16.48854,0,9.23572-7.18431,16.4711-16.35526,16.4711-.6153,0-1.2443-.03238-1.89074-.0984-.49822-.0548-.94786-.08096-1.3838-.08096-1.90818,0-4.79162,0-6.61385,6.95887l-3.08522,11.72183c8.53448.44341,15.34139,7.52683,15.34139,16.16968,0,8.80726-7.26278,15.97288-16.19085,15.97288h-7.77719l-22.17321,83.14642c-1.98166,7.53306-9.14978,13.0172-17.03907,13.0172Z" fill="#fff"/>
      <path d="M367.27592,17.2832c0,5.02702-3.93468,9.83483-10.27202,9.17967-8.08608-.87437-13.33232,3.05906-15.73623,12.23873l-5.46421,20.76325h8.52452c4.80781,0,8.96046,3.93343,8.96046,8.96046,0,4.80781-4.15265,8.74249-8.96046,8.74249h-13.33232l-23.60434,88.51348c-1.09234,4.15265-5.24499,7.65014-10.0528,7.65014-5.9014,0-10.27202-3.71546-10.27202-9.61686,0-1.09234.21797-2.18469.43719-3.27828l22.07357-83.4877c-3.93343-.65516-7.21171-4.37062-7.21171-8.52327,0-4.80781,3.93343-8.96046,8.74124-8.96046h3.06031l6.33858-24.04153c5.24499-19.88888,18.3581-28.19293,31.9084-28.19293,2.18593,0,4.15265.21797,6.33858.65516,5.90015,1.09234,8.52327,5.24499,8.52327,9.39764Z"/>
    </g>
    <g>
      <path d="M360.90535,180.56182c-10.22718,0-17.9396-7.33627-17.9396-17.06523,0-1.8185.32011-3.41653.57793-4.70069l.10089-.4347,20.3709-76.64343c-4.40674-2.87098-7.28146-7.75851-7.28146-13.29247,0-8.59427,6.72968-15.6453,15.19566-16.16096l5.36706-20.42695c2.42881-9.02273,10.5286-13.04211,17.48373-13.04211,9.97807,0,17.50241,7.24285,17.50241,16.84725,0,1.29412,0,3.22721-.73114,5.54642l-3.13628,11.66827c6.7683,1.94056,11.73553,8.18448,11.73553,15.56808,0,8.80726-7.26278,15.97288-16.19085,15.97288h-4.06173l-22.17196,83.14642c-2.25817,8.06242-8.69391,13.0172-16.8211,13.0172Z" fill="#fff"/>
      <path d="M403.96014,59.46486c4.80781,0,8.96046,3.93343,8.96046,8.96046,0,4.80781-4.15265,8.74249-8.96046,8.74249h-9.61686l-23.6031,88.51348c-1.53078,5.46421-5.68218,7.65014-9.83483,7.65014-5.46421,0-10.7092-3.49749-10.7092-9.83483,0-1.09359.21797-2.18593.43719-3.27828l22.07357-83.05051c-4.80781-.21922-8.74249-3.93468-8.74249-8.74249,0-5.02702,4.15265-8.96046,8.96046-8.96046h4.58984l6.77577-25.79027c1.52953-5.68218,6.77452-7.6489,10.48999-7.6489,5.46421,0,10.27202,3.49625,10.27202,9.61686,0,1.09234,0,2.18469-.43719,3.49625l-5.46296,20.32606h4.80781Z"/>
    </g>
  </g>
  <g>
    <line x1="430.15501" y1="131.59499" x2="430.15501" y2="151.21278" fill="none" stroke="#000" stroke-miterlimit="10" stroke-width="2"/>
    <line x1="439.9639" y1="141.40388" x2="420.34611" y2="141.40388" fill="none" stroke="#000" stroke-miterlimit="10" stroke-width="2"/>
  </g>
</svg>